<svg width="7" height="12" viewBox="0 0 7 12" fill="none" xmlns="http://www.w3.org/2000/svg">
<path d="M0.310022 0.710754C0.217319 0.803268 0.143771 0.913157 0.0935898 1.03413C0.0434083 1.1551 0.0175781 1.28479 0.0175781 1.41575C0.0175781 1.54672 0.0434083 1.67641 0.0935898 1.79738C0.143771 1.91835 0.217319 2.02824 0.310022 2.12075L4.19002 6.00075L0.310022 9.88075C0.123045 10.0677 0.0180016 10.3213 0.0180016 10.5858C0.0180016 10.8502 0.123045 11.1038 0.310022 11.2908C0.497 11.4777 0.750596 11.5828 1.01502 11.5828C1.27945 11.5828 1.53304 11.4777 1.72002 11.2908L6.31002 6.70075C6.40273 6.60824 6.47627 6.49835 6.52645 6.37738C6.57664 6.2564 6.60247 6.12672 6.60247 5.99575C6.60247 5.86479 6.57664 5.7351 6.52645 5.61413C6.47627 5.49316 6.40273 5.38327 6.31002 5.29075L1.72002 0.700754C1.34002 0.320754 0.700022 0.320755 0.310022 0.710754Z" fill="#999999"/>
</svg>
