<svg width="180" height="180" viewBox="0 0 180 180" fill="none" xmlns="http://www.w3.org/2000/svg">
<circle cx="90" cy="90" r="90" fill="#E8DCD4"/>
<path d="M69.0331 113.23V114.595H56.9431V113.23H69.0331ZM67.9831 104.065V105.4H57.9181V104.065H67.9831ZM67.9531 109.645V110.965H57.9781V109.645H67.9531ZM61.4881 105.295V109.78H59.8381V105.295H61.4881ZM66.0781 105.295V109.78H64.4431V105.295H66.0781ZM81.7685 113.32V114.655H69.6785V113.32H81.7685ZM76.5185 110.665V113.86H74.8835V110.665H76.5185ZM80.3585 103.765V108.055H72.7385V110.455H71.1185V106.75H78.7235V105.07H71.0885V103.765H80.3585ZM80.6585 109.81V111.13H71.1185V109.81H80.6585ZM93.4688 102.865V109.735H91.8038V102.865H93.4688ZM93.4688 110.305V113.755H86.2088V115.51H84.5888V112.57H91.8338V111.58H84.5588V110.305H93.4688ZM93.8888 114.805V116.095H84.5888V114.805H93.8888ZM90.1688 103.69V104.98H82.9838V103.69H90.1688ZM82.6388 108.085C84.1288 108.085 85.5588 108.06 86.9288 108.01C88.2988 107.96 89.5638 107.865 90.7238 107.725L90.8138 108.895C89.6338 109.085 88.3838 109.215 87.0638 109.285C85.7438 109.355 84.3238 109.395 82.8038 109.405L82.6388 108.085ZM85.7288 104.29V108.715H84.1388V104.29H85.7288ZM89.0138 104.29V108.715H87.4238V104.29H89.0138ZM108.236 105.805V107.155H105.056V105.805H108.236ZM102.716 103.66V105.19C102.716 106.09 102.576 106.93 102.296 107.71C102.016 108.48 101.601 109.155 101.051 109.735C100.501 110.305 99.8312 110.74 99.0412 111.04L98.1712 109.735C98.8612 109.495 99.4462 109.145 99.9262 108.685C100.406 108.225 100.766 107.695 101.006 107.095C101.256 106.485 101.381 105.85 101.381 105.19V103.66H102.716ZM103.046 103.66V105.205C103.046 105.805 103.161 106.385 103.391 106.945C103.631 107.505 103.981 108.005 104.441 108.445C104.901 108.875 105.461 109.21 106.121 109.45L105.251 110.71C104.501 110.43 103.861 110.015 103.331 109.465C102.801 108.915 102.401 108.275 102.131 107.545C101.861 106.815 101.726 106.035 101.726 105.205V103.66H103.046ZM109.316 102.865V112.765H107.666V102.865H109.316ZM109.616 114.625V115.945H100.571V114.625H109.616ZM102.221 111.73V115.33H100.571V111.73H102.221ZM112.362 109.06C113.432 109.06 114.307 109.04 114.987 109C115.667 108.96 116.357 108.88 117.057 108.76L117.207 110.08C116.497 110.21 115.787 110.295 115.077 110.335C114.377 110.375 113.472 110.395 112.362 110.395H111.462V109.06H112.362ZM116.667 103.78V105.1H113.037V109.78H111.462V103.78H116.667ZM116.532 106.42V107.665H112.557V106.42H116.532ZM122.277 102.85V110.98H120.717V102.85H122.277ZM121.182 106.21V107.545H118.902V106.21H121.182ZM119.367 103.105V110.905H117.837V103.105H119.367ZM122.277 111.61V116.215H120.642V112.93H113.187V111.61H122.277Z" fill="#462008"/>
<path d="M89.9997 88.6663C81.9125 88.6663 75.333 82.0869 75.333 73.9997C75.333 65.9125 81.9125 59.333 89.9997 59.333C98.0869 59.333 104.666 65.9125 104.666 73.9997C104.666 82.0869 98.0869 88.6663 89.9997 88.6663ZM89.9997 61.1663C82.9234 61.1663 77.1663 66.9234 77.1663 73.9997C77.1663 81.076 82.9234 86.833 89.9997 86.833C97.076 86.833 102.833 81.076 102.833 73.9997C102.833 66.9234 97.076 61.1663 89.9997 61.1663Z" fill="#462008"/>
<path d="M97.1328 74.9163H82.8669C82.3607 74.9163 81.9502 74.506 81.9502 73.9997C81.9502 73.4933 82.3607 73.083 82.8669 73.083H97.1328C97.6389 73.083 98.0494 73.4933 98.0494 73.9997C98.0494 74.506 97.6389 74.9163 97.1328 74.9163Z" fill="#462008"/>
<path d="M89.9997 82.0488C89.4935 82.0488 89.083 81.6385 89.083 81.1322V66.8659C89.083 66.3595 89.4935 65.9492 89.9997 65.9492C90.5059 65.9492 90.9163 66.3595 90.9163 66.8659V81.132C90.9163 81.6385 90.5059 82.0488 89.9997 82.0488Z" fill="#462008"/>
</svg>
