<svg width="28" height="28" viewBox="0 0 28 28" fill="none" xmlns="http://www.w3.org/2000/svg">
<path d="M24.2666 20.7771V20.6125C24.2651 20.073 24.1064 19.5449 23.8089 19.0895C23.5114 18.6342 23.0872 18.2701 22.5856 18.0395C22.3786 17.9443 22.2036 17.794 22.0809 17.6061C21.9582 17.4182 21.8928 17.2003 21.8923 16.9777V11.6635C21.8897 9.77376 21.1709 7.95121 19.8733 6.54432C18.5756 5.13743 16.7902 4.24491 14.8584 4.03738V2.46543C14.8578 2.24441 14.7671 2.03264 14.6062 1.87655C14.4453 1.72047 14.2273 1.63281 13.9999 1.63281C13.7726 1.63281 13.5546 1.72047 13.3937 1.87655C13.2327 2.03264 13.142 2.24441 13.1415 2.46543V4.03738C11.2097 4.24497 9.4243 5.13751 8.12669 6.54439C6.82907 7.95127 6.11023 9.77378 6.10759 11.6635V16.9777C6.10712 17.2003 6.04167 17.4183 5.91885 17.6063C5.79604 17.7942 5.6209 17.9445 5.41378 18.0395C4.91227 18.2702 4.48825 18.6343 4.19083 19.0897C3.89341 19.5451 3.73477 20.073 3.73328 20.6125V20.7771C3.73422 21.5307 4.04256 22.2532 4.59068 22.7861C5.13879 23.319 5.88191 23.6187 6.65703 23.6196H10.3906C10.3881 23.6745 10.3828 23.7289 10.3828 23.7841C10.3828 24.2458 10.4763 24.7029 10.658 25.1294C10.8397 25.5559 11.106 25.9434 11.4417 26.2699C11.7774 26.5963 12.176 26.8552 12.6147 27.0319C13.0533 27.2086 13.5234 27.2995 13.9982 27.2995C14.473 27.2995 14.9432 27.2086 15.3818 27.0319C15.8205 26.8552 16.219 26.5963 16.5547 26.2699C16.8905 25.9434 17.1568 25.5559 17.3385 25.1294C17.5202 24.7029 17.6137 24.2458 17.6137 23.7841C17.6137 23.7288 17.608 23.6745 17.6054 23.6196H21.3431C22.1182 23.6187 22.8613 23.3189 23.4093 22.786C23.9574 22.2531 24.2657 21.5307 24.2666 20.7771ZM5.45048 20.7771V20.6125C5.45109 20.3899 5.51654 20.172 5.63923 19.9841C5.76192 19.7962 5.93685 19.6459 6.14375 19.5507C6.64549 19.3202 7.06974 18.9561 7.36728 18.5007C7.66482 18.0453 7.82346 17.5172 7.8248 16.9777V11.6635C7.82404 10.8745 7.98322 10.0932 8.29322 9.36402C8.60323 8.63489 9.05798 7.97231 9.6315 7.41416C10.205 6.85601 10.886 6.41322 11.6356 6.11112C12.3853 5.80903 13.1888 5.65353 14.0002 5.65353C14.8117 5.65353 15.6152 5.80903 16.3648 6.11112C17.1144 6.41322 17.7954 6.85601 18.3689 7.41416C18.9424 7.97231 19.3972 8.63489 19.7072 9.36402C20.0172 10.0932 20.1764 10.8745 20.1756 11.6635V16.9777C20.1769 17.5171 20.3353 18.0451 20.6327 18.5005C20.93 18.9559 21.3541 19.3201 21.8556 19.5507C22.0627 19.6457 22.2379 19.7959 22.3608 19.9839C22.4837 20.1718 22.5493 20.3898 22.5499 20.6125V20.7771C22.5496 21.0881 22.4223 21.3864 22.1961 21.6064C21.9698 21.8264 21.6631 21.9501 21.3431 21.9504H16.8046C16.633 21.8956 16.4478 21.8956 16.2762 21.9504H6.65703C6.33711 21.95 6.03041 21.8263 5.80422 21.6063C5.57802 21.3863 5.45081 21.0881 5.45048 20.7771ZM15.897 23.7841C15.897 24.2737 15.697 24.7432 15.341 25.0894C14.9849 25.4356 14.502 25.6301 13.9985 25.6301C13.495 25.6301 13.0121 25.4356 12.656 25.0894C12.3 24.7432 12.1 24.2737 12.1 23.7841C12.1 23.7284 12.1107 23.6745 12.1157 23.6196H15.8802C15.8853 23.6746 15.897 23.7282 15.897 23.7841Z" fill="#111111"/>
</svg>
