<svg width="18" height="18" viewBox="0 0 18 18" fill="none" xmlns="http://www.w3.org/2000/svg">
<g clip-path="url(#clip0_3355_2316)">
<path d="M4.58721 8.57905L3.94976 13.0142C3.88351 13.5434 4.21014 14.0377 4.97326 14.0377L9.40843 13.4003C9.60186 13.3746 9.7816 13.2863 9.92018 13.1489C9.99103 13.078 16.95 6.12549 17.0129 6.0472C20.1034 2.63343 15.2397 -2.02298 11.9403 0.974569C11.8625 1.03678 4.90898 7.9969 4.83859 8.0673C4.7012 8.20588 4.61291 8.38558 4.58721 8.57905ZM14.3644 1.84543C15.3432 1.8326 16.147 2.61562 16.1599 3.59438C16.16 3.60396 16.16 3.6135 16.16 3.62308C16.1606 4.0062 16.0343 4.37868 15.8009 4.68252L13.305 2.18661C13.6111 1.95974 13.9834 1.83988 14.3644 1.84543ZM6.32001 9.1267L12.0121 3.44355L14.5439 5.97536L8.86082 11.6675L5.89802 12.0895L6.32001 9.1267Z" fill="currentColor"/>
<path d="M15.2608 10.0202V13.4992C15.2592 14.9861 14.0543 16.191 12.5674 16.1926H4.48709C3.00024 16.191 1.79528 14.9861 1.79367 13.4992V5.41893C1.79532 3.93208 3.00024 2.72712 4.48709 2.72552H8.05033C8.54617 2.72552 8.94813 2.32356 8.94813 1.82772C8.94813 1.33189 8.54617 0.929932 8.05033 0.929932H4.48709C2.00906 0.932769 0.000966456 2.94091 -0.00195312 5.41893V13.4992C0.000966456 15.9772 2.00906 17.9853 4.48709 17.9883H12.5674C15.0454 17.9853 17.0535 15.9772 17.0564 13.4992V10.0202C17.0564 9.52436 16.6545 9.1224 16.1586 9.1224C15.6628 9.1224 15.2608 9.52436 15.2608 10.0202Z" fill="currentColor"/>
</g>
<defs>
<clipPath id="clip0_3355_2316">
<rect width="18" height="18" fill="white"/>
</clipPath>
</defs>
</svg>
