<svg width="28" height="28" viewBox="0 0 28 28" fill="none" xmlns="http://www.w3.org/2000/svg">
<path fill-rule="evenodd" clip-rule="evenodd" d="M17.6063 2.7978C17.5445 2.45825 17.2894 2.18662 16.9542 2.10391C15.0345 1.63203 13.0286 1.63203 11.1088 2.10391C10.7736 2.18662 10.5185 2.45825 10.4567 2.7978L9.98659 5.38268C9.49904 5.61166 9.03064 5.88155 8.58836 6.18975L6.11493 5.30433C5.78931 5.18766 5.42713 5.27298 5.18771 5.52198C3.81996 6.94894 2.817 8.68583 2.26503 10.5847C2.16926 10.9155 2.27633 11.2733 2.53926 11.4962L4.54344 13.1957C4.49817 13.7328 4.49817 14.2726 4.54344 14.8098L2.53926 16.5093C2.27633 16.733 2.16926 17.09 2.26503 17.4217C2.817 19.3196 3.81996 21.0565 5.18771 22.4835C5.42713 22.7325 5.78931 22.8178 6.11493 22.702L8.58836 21.8157C9.03064 22.1239 9.49817 22.3938 9.98659 22.6228L10.4567 25.2086C10.5185 25.5481 10.7736 25.8197 11.1088 25.9016C13.0286 26.3734 15.0345 26.3734 16.9542 25.9016C17.2894 25.8197 17.5445 25.5481 17.6063 25.2086L18.0764 22.6228C18.564 22.3938 19.0315 22.1239 19.4747 21.8157C19.4738 21.8157 21.9481 22.702 21.9481 22.702C22.2728 22.8178 22.6359 22.7325 22.8745 22.4835C24.2431 21.0565 25.246 19.3196 25.7971 17.4217C25.8938 17.09 25.7867 16.733 25.5229 16.5093L23.5196 14.8098C23.5649 14.2735 23.5649 13.7328 23.5196 13.1957C23.5187 13.1957 25.5229 11.4962 25.5229 11.4962C25.7867 11.2733 25.8938 10.9155 25.7971 10.5847C25.246 8.68583 24.2431 6.94894 22.8745 5.52198C22.6359 5.27298 22.2728 5.18766 21.9481 5.30433L19.4738 6.18975C19.0324 5.88155 18.564 5.61166 18.0764 5.38268L17.6063 2.7978ZM15.9887 3.68496L16.4371 6.15319C16.491 6.44746 16.6913 6.69471 16.9681 6.80703C17.622 7.07431 18.2366 7.42952 18.7947 7.86222C19.0306 8.04505 19.3449 8.09555 19.6262 7.99456L21.989 7.14918C22.8475 8.14605 23.5118 9.29614 23.9462 10.5385L22.0326 12.1622C21.8045 12.3555 21.6904 12.6515 21.7313 12.9484C21.8271 13.6484 21.8271 14.358 21.7313 15.0579C21.6904 15.3539 21.8045 15.6508 22.0326 15.8441L23.9462 17.467C23.5118 18.7093 22.8475 19.8594 21.989 20.8572L19.6262 20.0109C19.3449 19.9108 19.0306 19.9604 18.7947 20.1441C18.2366 20.5768 17.622 20.9312 16.9681 21.1985C16.6913 21.3116 16.491 21.558 16.4371 21.8523L15.9887 24.3214C14.6949 24.566 13.3672 24.566 12.0744 24.3214L11.6251 21.8523C11.572 21.558 11.3718 21.3116 11.0949 21.1985C10.4411 20.9312 9.8264 20.5768 9.26833 20.1441C9.03152 19.9604 8.71809 19.9108 8.43688 20.0109L6.07401 20.8572C5.2147 19.8594 4.55129 18.7093 4.11684 17.467L6.03048 15.8441C6.25858 15.6508 6.37263 15.3539 6.33171 15.0579C6.23594 14.358 6.23594 13.6484 6.33171 12.9484C6.37263 12.6515 6.25858 12.3555 6.03048 12.1622L4.11684 10.5385C4.55129 9.29614 5.2147 8.14605 6.07401 7.14918L8.43688 7.99456C8.71809 8.09555 9.03152 8.04505 9.26833 7.86222C9.8264 7.42952 10.4411 7.07431 11.0949 6.80703C11.3718 6.69471 11.572 6.44746 11.6251 6.15319L12.0744 3.68496C13.3672 3.43945 14.6949 3.43945 15.9887 3.68496ZM14.0315 8.69019C11.0993 8.69019 8.71896 11.0713 8.71896 14.0027C8.71896 16.935 11.0993 19.3153 14.0315 19.3153C16.9638 19.3153 19.3441 16.935 19.3441 14.0027C19.3441 11.0713 16.9638 8.69019 14.0315 8.69019ZM14.0315 10.441C15.9974 10.441 17.5932 12.0369 17.5932 14.0027C17.5932 15.9686 15.9974 17.5653 14.0315 17.5653C12.0657 17.5653 10.4698 15.9686 10.4698 14.0027C10.4698 12.0369 12.0657 10.441 14.0315 10.441Z" fill="currentColor"/>
</svg>
