<svg width="167" height="193" viewBox="0 0 167 193" fill="none" xmlns="http://www.w3.org/2000/svg">
<path d="M27.4617 100.371C33.9358 104.748 38.6104 109.246 43.2756 101.732C43.3185 101.666 43.3596 101.596 43.3997 101.529C46.4679 96.3097 42.631 95.7594 37.8007 91.5148C36.8818 90.7079 27.0587 82.577 21.7516 76.6608C10.2942 63.8899 6.5916 52.9725 6.08413 52.7487C3.02153 51.3969 3.15307 69.4031 9.71299 81.7533C15.355 92.3768 25.5241 99.0617 27.4617 100.371Z" fill="#FFDDBB"/>
<path opacity="0.3" d="M123.279 173.322C135.938 180.22 122.42 192.631 86.3181 192.095C38.3492 191.383 0.333008 171.288 0.333008 164.405C0.333008 157.519 12.0377 155.748 48.1536 155.748C84.2592 155.747 117.269 170.048 123.279 173.322Z" fill="#231F20"/>
<path d="M54.3133 148.939C57.0102 154.947 60.9012 163.236 66.8342 166.615C70.4789 168.692 74.7524 168.072 77.342 165.595C78.0762 164.892 78.7049 164.034 78.9634 162.971C79.2218 161.907 79.065 160.616 78.3719 159.586C77.4362 158.197 75.7776 157.569 74.6955 156.293C72.312 153.485 72.6516 146.813 72.6749 143.676C72.7094 138.898 73.2906 134.257 73.8074 129.615C74.147 126.569 74.4548 123.487 74.1572 120.307C73.4902 113.183 69.783 106.048 64.9592 100.194C59.1968 93.1998 45.7524 85.1735 40.7364 94.1514C38.5423 98.0787 40.5591 103.9 41.6711 108.503C43.2103 114.874 44.7813 121.246 46.6293 127.587C48.7292 134.794 51.1845 141.967 54.3133 148.939Z" fill="#DBA77D"/>
<path d="M113.869 105.027C112.937 106.503 112.259 108.183 111.869 109.836C110.898 113.947 111.146 118.173 110.791 122.357C109.84 133.575 104.66 141.223 103.743 142.103C100.058 145.639 97.6414 138.931 93.3791 141.251C87.892 144.235 89.4993 158.373 102.84 159.176C112.705 159.77 121.626 145.107 125.022 136.008C128.239 127.388 129.919 114.291 127.927 105.646C127.033 101.766 123.962 99.5421 119.552 100.565C117.171 101.119 115.243 102.852 113.869 105.027Z" fill="#FFDDBB"/>
<path d="M126.018 115.369C128.721 110.393 129.436 103.422 126.619 98.1713C125.286 95.6871 123.302 93.7878 121.266 92.1114C113.547 85.7558 103.964 72.9755 94.3201 72.0511C84.5353 71.1135 71.6207 81.6969 56.0129 80.8293C38.7614 79.8713 29.7807 82.6102 27.8357 86.0207C24.8571 91.2448 30.1567 99.4195 29.5923 105.256C28.8824 112.6 27.8413 121.687 36.5655 124.433C40.1449 125.56 43.9883 125.383 47.7067 125.885C51.3374 126.375 54.7246 127.588 58.1902 128.707C61.222 129.685 64.4339 129.489 67.4629 130.544C76.6694 133.747 89.6147 134.264 99.4369 133.451C115.039 132.161 120.312 125.874 126.018 115.369Z" fill="#FFDDBB"/>
<path d="M91.6363 139.375C89 140.42 87.0709 143.031 86.4468 145.907C86.2789 146.68 86.1958 147.483 86.2975 148.269C86.5083 149.895 87.5252 151.349 88.8657 152.202C90.2062 153.055 91.8397 153.334 93.3985 153.151C96.0254 152.842 98.5059 151.171 99.7308 148.721C100.846 146.488 101.065 142.791 99.1524 140.945C97.1757 139.038 94.1476 138.38 91.6363 139.375Z" fill="#FFDDBB"/>
<path d="M70.774 126.325C64.2215 124.854 57.8239 122.721 51.2286 121.456C44.858 120.233 37.9045 120.028 31.4397 120.952C32.5703 122.468 34.2 123.69 36.5658 124.435C40.1452 125.562 43.9886 125.384 47.707 125.886C51.3377 126.377 54.725 127.59 58.1905 128.709C61.2224 129.688 64.4342 129.492 67.4632 130.546C76.6697 133.749 89.6151 134.266 99.4372 133.455C109.48 132.623 115.241 129.718 119.596 124.953C103.773 129.448 86.8248 129.925 70.774 126.325Z" fill="#EFC095"/>
<path d="M78.4571 110.608C78.4571 110.608 79.6615 136.316 94.0509 177.839L77.4198 183.577C77.4198 183.577 55.7876 135.909 55.4321 97.8477L78.4571 110.608Z" fill="#FFDDBB"/>
<path d="M102.446 178.973C104.972 186.826 98.2993 189.598 91.2365 190.815C82.1299 192.385 79.1466 189.844 77.3135 185.045C75.4879 180.253 79.627 175.004 86.5657 173.326C93.5052 171.649 100.879 174.102 102.446 178.973Z" fill="#FFDDBB"/>
<path d="M0.398392 160.88C1.51317 163.429 3.27254 165.838 9.31938 165.33C14.6572 164.88 15.3074 161.837 14.2934 159.405C13.8177 158.263 13.1161 158.24 13.0266 156.252C12.5228 145.045 12.5331 142.41 18.148 137.234C19.7628 135.745 22.9103 136.944 24.9691 136.967C31.0887 137.033 37.0115 132.876 40.6077 127.366C44.6367 121.193 47.1303 113.549 48.0818 106.114C48.8906 99.7875 48.1555 91.985 45.0239 87.1042C41.6189 81.7962 33.6168 82.1199 28.6558 84.8187C24.2079 87.2386 20.3123 91.2732 17.0034 95.8079C-0.933752 120.391 -0.651082 158.48 0.398392 160.88Z" fill="#FFDDBB"/>
<path d="M70.3251 81.1879C68.812 85.0201 68.714 91.7703 70.2523 95.5316C71.7169 99.1129 74.5062 102.252 77.0641 104.496C82.7173 109.461 89.7707 111.712 96.5498 112.148C106.49 112.79 116.829 112.717 124.936 104.657C128.98 100.633 132.388 96.4962 133.108 89.7021C134.993 71.8713 121.829 67.8516 110.592 65.2713C100.014 62.844 83.7742 61.0995 75.8188 72.5206C74.107 74.9787 71.4977 78.2214 70.3251 81.1879Z" fill="#EF4136"/>
<path d="M73.9745 56.6741C72.6331 61.0772 78.3273 81.5471 79.6902 85.8682C80.9878 89.983 83.4599 93.5904 85.7268 96.1689C90.7372 101.873 96.9874 104.459 102.995 104.959C111.804 105.696 120.967 105.613 128.152 96.3517C131.736 91.7294 134.755 86.9755 135.393 79.1693C137.064 58.6826 125.398 54.0649 115.439 51.0993C106.065 48.3101 91.6738 46.3062 84.6232 59.4279C83.1063 62.2536 75.0128 53.2654 73.9745 56.6741Z" fill="#E8BB91"/>
<path d="M141.374 48.876C140.009 44.777 138.574 40.6948 137.295 36.5584C135.558 30.9463 133.435 26.6113 129.648 22.016C125.009 16.3852 112.227 7.2142 124.434 0.755039C131.257 -2.85608 143.338 7.41012 147.516 12.0325C150.594 15.4421 151.689 20.2053 154.673 23.5879C158.622 28.061 164.266 30.3241 166.101 35.9138C168.99 44.7219 161.337 51.4321 159.614 59.5079C159.17 61.5844 160.061 65.4894 157.604 67.093C147.869 73.4533 142.988 53.726 141.374 48.876Z" fill="#D88D50"/>
<path d="M69.5245 27.2744C69.8725 23.2565 69.2643 19.7965 70.9341 15.8897C72.5041 12.217 75.1721 8.99673 78.4688 6.74479C84.5306 2.6038 92.3331 1.54034 99.5824 2.69616C100.628 2.86314 101.682 3.07395 102.737 2.98626C103.96 2.88551 105.11 2.39203 106.276 2.01049C115.655 -1.06051 125.93 3.17377 133.889 9.01071C136.827 11.1656 139.654 13.6097 141.494 16.7544C145.172 23.0363 144.325 30.8566 143.641 38.104C142.812 46.8804 143.8 53.0634 148.451 60.448C151.162 64.7522 151.473 70.2263 150.401 75.1994C148.24 85.2174 139.302 100.419 118.597 101.881C114.252 102.188 96.3659 106.615 83.5977 80.7155C81.6676 76.8012 82.1723 70.6703 81.1676 68.0947C79.592 64.0573 76.5322 60.5432 74.4631 56.7529C72.0517 52.3302 70.9136 47.4793 70.0815 42.4073C69.2661 37.4491 69.0973 32.1999 69.5245 27.2744Z" fill="#FFDDBB"/>
<path d="M76.3356 60.1702C75.9885 55.7335 75.7162 51.2838 75.2768 46.8452C74.6779 40.8217 74.954 35.8579 76.6985 29.9836C78.8347 22.7856 87.2473 8.97829 73.1442 7.71053C65.2597 7.00155 57.9451 21.5692 55.8433 27.6263C54.2957 32.0919 55.1614 37.052 53.693 41.4551C51.7471 47.278 47.3188 51.6784 47.816 57.7196C48.5987 67.2376 58.5038 70.5587 63.3491 77.5421C64.5964 79.3369 65.3138 83.4005 68.2728 83.9443C80.0017 86.103 76.7451 65.4204 76.3356 60.1702Z" fill="#D88D50"/>
<path d="M87.3694 44.6318C88.3331 49.4043 91.53 52.786 94.5105 52.1843C97.4892 51.5826 99.1236 47.2252 98.1599 42.4526C97.1963 37.6791 93.9984 34.2985 91.0197 34.8992C88.0402 35.5019 86.4058 39.8593 87.3694 44.6318Z" fill="black"/>
<path d="M123.49 40.678C124.454 45.4515 127.65 48.8331 130.63 48.2314C133.61 47.6297 135.244 43.2732 134.28 38.4997C133.317 33.7263 130.12 30.3456 127.14 30.9473C124.159 31.548 122.526 35.9045 123.49 40.678Z" fill="black"/>
<path d="M111.866 68.0711C111.604 79.7711 138.347 74.7206 137.782 65.8574C137.271 57.8637 128.493 58.6949 123.819 59.0932C118.059 59.5829 112.027 60.791 111.866 68.0711Z" fill="black"/>
<path d="M124.07 83.1597C123.66 83.3333 123.295 83.8836 122.929 84.0879C121.664 84.7922 119.98 84.9891 118.58 85.0273C117.097 85.0675 115.604 84.8398 114.192 84.3445C113.635 84.1486 110.752 83.1224 110.682 82.4004C111.056 86.2634 113.687 89.6525 116.999 91.1283C120.311 92.6041 124.17 92.2897 127.442 90.716C130.715 89.1422 133.431 86.394 135.498 83.2232C134.586 84.6206 130.605 84.7978 129.211 84.7437C128.25 84.7064 127.052 84.6215 126.151 84.2297C125.593 83.9863 124.916 83.0972 124.302 83.1075C124.224 83.1084 124.147 83.1271 124.07 83.1597Z" fill="#A00A2B"/>
<path d="M125.11 84.8742C125.786 84.9638 126.406 84.4013 126.494 83.6205L127.892 71.2049C127.98 70.4223 127.503 69.7151 126.827 69.6256C126.15 69.536 125.53 70.0976 125.443 70.8803L124.044 83.2958C123.957 84.0775 124.432 84.7847 125.11 84.8742Z" fill="black"/>
<path d="M109.832 80.1285C110.386 79.6798 111.158 79.8384 111.552 80.4867C112.671 82.3208 116.252 84.0941 118.03 84.3479C120.604 84.7145 122.503 83.8227 124.494 82.345L124.486 82.2293C124.519 82.2461 124.552 82.261 124.586 82.2788C124.615 82.2554 124.646 82.2349 124.677 82.2135L124.684 82.3292C126.852 83.4756 128.851 84.0568 131.348 83.2872C133.072 82.7545 136.378 80.4326 137.238 78.441C137.541 77.7367 138.283 77.4577 138.892 77.8141C139.503 78.1714 139.752 79.0287 139.45 79.7321C138.12 82.8142 133.962 85.4403 132.008 86.0438C131.25 86.2789 130.53 86.4142 129.843 86.4692C127.949 86.6203 126.31 86.1436 124.803 85.4654C123.401 86.375 121.844 87.1063 119.951 87.2575C119.262 87.3125 118.531 87.292 117.751 87.1801C115.736 86.8927 111.269 84.9533 109.54 82.1146C109.145 81.4662 109.275 80.5782 109.832 80.1285Z" fill="black"/>
</svg>
