<svg width="116" height="134" viewBox="0 0 174 201" fill="none" xmlns="http://www.w3.org/2000/svg">
<path d="M151.954 137.485C150.685 138.655 149.447 139.815 148.388 141.223C147.161 142.852 146.006 144.147 144.275 145.291C138.263 149.261 125.963 154.8 122.81 144.572C122.782 144.48 122.755 144.388 122.728 144.296C120.699 137.254 127.178 133.051 132.71 130.46C136.029 128.904 139.49 127.672 142.881 126.278C147.198 124.501 151.202 121.811 154.577 118.623C156.235 117.057 165.149 104.295 166.122 102.834C168.285 99.5855 167.069 110.737 166.935 111.287C164.436 121.403 162.876 123.065 161.678 125.486C159.278 130.332 155.944 133.808 151.954 137.485Z" fill="#D9C5B2"/>
<path opacity="0.3" d="M160.205 178.808C160.558 189.406 131.639 198.912 95.6087 200.045C59.5747 201.178 30.0847 193.508 29.7317 182.91C29.3787 172.307 58.2977 162.799 94.3317 161.666C130.362 160.533 159.852 168.205 160.205 178.808Z" fill="black"/>
<path d="M75.4678 178.361C80.9868 177.766 87.5268 176.868 92.2598 171.722C96.8258 166.756 98.7538 156.572 96.0108 149.818C90.1058 135.292 76.5698 123.404 65.8688 139.05C60.8708 146.355 64.9358 158.112 68.0568 164.341C65.6818 165.186 63.2288 163.809 60.9978 166.12C59.0488 168.139 58.2668 172.069 59.6348 174.565C63.0228 180.732 70.5008 178.895 75.4678 178.361Z" fill="#D9C5B2"/>
<path d="M116.936 88.6139C116.479 87.8109 116.028 87.0059 115.585 86.1959C113.746 82.8339 112.014 79.3599 109.416 76.5109C106.53 73.3459 103.272 71.7079 99.0965 72.0429C98.1735 72.1169 87.3835 75.5739 87.2715 75.1889C87.2705 75.1859 87.2605 75.1509 87.2605 75.1509C87.1295 75.1929 87.0015 75.2399 86.8675 75.2799C86.7345 75.3129 86.5965 75.3389 86.4655 75.3689L86.4765 75.4069C78.7735 77.8409 71.1835 81.5289 63.7415 84.5109C56.1345 87.5589 54.5525 95.4289 54.3845 102.638C54.3295 104.991 54.7715 107.53 54.3575 109.85C54.0905 111.346 53.0895 112.692 53.0085 114.213C52.7575 118.967 58.1525 121.753 61.2075 124.516C64.7975 127.764 67.0635 132.126 69.2545 136.391C72.6625 143.023 76.0705 149.654 79.4785 156.286C81.2375 159.709 83.0195 163.166 85.5455 166.1C90.2105 171.518 100.149 173.979 107.111 174.557C122.597 175.842 137.282 175.669 141.214 157.526C143.933 144.98 139.938 130.527 134.585 119.102C129.613 108.484 122.753 98.8209 116.936 88.6139Z" fill="#D9C5B2"/>
<path d="M117.492 88.0173C117.027 87.2083 116.569 86.3953 116.119 85.5783C115.547 84.5413 114.983 83.4953 114.404 82.4583C111.761 82.2993 109.108 82.6283 106.599 83.5543C103.681 84.6323 101.103 86.4113 98.6468 88.2753C95.8958 90.3623 93.1998 92.6373 91.4338 95.5533C88.7858 99.9273 88.5628 105.595 90.9168 110.123C92.4218 113.017 94.9178 115.461 97.9918 116.942C100.413 118.108 103.115 118.554 105.543 119.695C107.934 120.817 109.231 122.566 111.039 124.282C112.815 125.968 115.513 126.926 117.512 128.412C119.696 130.036 121.696 131.894 123.457 133.948C125.385 136.198 127.022 138.666 128.668 141.119C132.249 146.456 135.895 151.752 139.606 157.005C139.844 157.341 140.114 157.701 140.518 157.81C144.424 158.869 142.52 141.267 142.188 139.373C140.938 132.248 138.526 125.32 135.429 118.76C130.374 108.054 123.403 98.3103 117.492 88.0173Z" fill="#EADBCC"/>
<path d="M135.429 118.762C132.683 112.947 129.37 107.417 125.971 101.928C123.027 109.47 119.267 120.431 118.53 129.213C120.318 130.641 121.977 132.221 123.458 133.949C125.386 136.199 127.023 138.667 128.669 141.12C129.129 141.806 129.6 142.486 130.063 143.171C130.749 142.838 131.399 142.431 131.979 141.956C133.813 140.454 135.091 138.422 136.177 136.351C137.537 133.755 138.536 131.096 139.335 128.382C138.221 125.104 136.906 121.89 135.429 118.762Z" fill="#D9C5B2"/>
<path d="M62.6418 107.875C63.4788 112.577 61.3048 116.828 58.8038 121.46C52.9038 132.388 48.8558 143.142 47.8158 155.451C47.0888 164.055 48.8248 171.545 53.6698 178.5C57.0788 183.392 59.2918 188.581 51.4378 190.224C48.6438 190.808 45.6518 191.767 42.9058 191.012C31.4118 187.85 30.6558 179.911 28.9868 169.394C27.5438 160.302 27.1678 151.015 28.1618 141.846C29.9558 125.306 37.6578 102.119 52.5778 92.4688C55.0728 96.6667 59.1428 99.8248 61.3658 104.17C62.0178 105.443 62.4278 106.674 62.6418 107.875Z" fill="#EADBCC"/>
<path d="M47.2518 117.718C51.0028 120.189 55.3098 121.676 59.6228 122.932C64.7328 124.42 70.0088 125.629 75.3258 125.38C80.6418 125.132 86.0558 123.28 89.7178 119.418C91.7238 117.302 93.1718 114.523 93.1548 111.607C93.1338 108.05 90.9188 104.773 88.0288 102.699C85.1398 100.625 81.6408 99.5873 78.1648 98.8343C68.7478 96.7943 58.9358 96.5963 49.4448 98.2563C36.3748 100.542 37.6088 111.366 47.2518 117.718Z" fill="#D9C5B2"/>
<path d="M81.7349 115.906C80.0089 122.127 88.3809 131.586 90.4589 137.442C91.8959 141.491 93.5759 143.881 94.4539 148.052C95.5609 153.314 96.7349 158.442 93.9629 163.088C92.7869 165.058 90.0589 168.81 88.3239 170.34C84.6169 173.608 80.9079 176.875 77.2019 180.145C74.4819 182.544 70.0249 185.261 70.5239 189.408C70.9119 192.632 74.3639 194.471 77.4619 195.091C92.5049 198.103 108.102 183.884 114.434 171.053C118.817 162.171 117.03 149.824 115.868 140.243C114.25 126.904 108.336 111.305 97.6829 102.852C94.8139 106.801 90.4859 109.569 87.8719 113.69C87.1069 114.897 82.0619 114.729 81.7349 115.906Z" fill="#EADBCC"/>
<path d="M40.2099 88.2448C38.9329 93.0188 39.6649 100.848 41.9189 104.839C44.0689 108.639 47.7009 111.623 50.9509 113.624C58.1349 118.053 66.6069 119.02 74.5319 117.953C86.1579 116.393 98.1539 113.914 106.558 102.718C110.751 97.1328 114.192 91.5618 114.178 83.5408C114.138 62.4938 98.3479 60.8958 84.9749 60.5168C72.3929 60.1598 53.3159 61.9078 45.5049 76.9528C43.8249 80.1868 41.1999 84.5408 40.2099 88.2448Z" fill="#E9AAA6"/>
<path d="M152.461 132.485C156.734 141.312 157.487 151.63 154.537 160.933C153.044 165.639 150.538 170.197 146.542 173.32C142.547 176.442 136.891 177.906 132.03 176.226C124.994 173.794 122.58 164.945 122.928 157.838C123.419 147.814 123.082 140.413 129.086 133.58C135.813 125.923 147.101 121.414 152.461 132.485Z" fill="#EADBCC"/>
<path d="M132.66 85.4209C133.462 84.2219 134.526 83.1379 135.946 82.2079C137.125 81.4359 138.45 80.8449 139.857 80.6279C140.902 80.4669 141.977 80.5149 143.016 80.7139C150.031 82.0599 153.546 90.2699 151.826 96.5069C149.529 104.838 145.077 112.263 143.45 120.937C142.341 126.847 141.054 132.525 138.218 137.935C137.132 140.006 135.854 142.039 134.02 143.54C132.186 145.042 129.708 145.955 127.346 145.501C124.582 144.97 122.47 142.668 121.461 140.128C117.495 130.14 126.12 107.879 129.957 98.7009C132.818 91.8579 128.55 91.5659 132.66 85.4209Z" fill="#EADBCC"/>
<path d="M153.544 95.0416C153.191 96.1096 152.76 97.1526 152.265 98.1596C150.591 101.565 148.046 104.715 144.56 106.199C138.748 108.674 134.559 104.84 130.774 100.959C126.812 96.8966 126.206 90.6046 127.682 85.3386C128.909 80.9616 132.114 77.1246 136.309 75.3946C140.504 73.6646 145.611 74.1856 149.219 76.9406C152.294 79.2886 154.127 83.0606 154.525 86.9146C154.808 89.6526 154.411 92.4216 153.544 95.0416Z" fill="#EADBCC"/>
<path d="M133.406 84.0155C132.992 83.3455 132.875 82.4665 133.125 81.6915C133.498 80.5375 134.96 79.4465 136.081 79.2905C136.517 79.2295 139.577 81.1585 138.931 81.9995C139.848 80.8065 141.626 79.5015 142.881 80.2095C144.141 80.9205 144.731 82.5945 144.312 84.0445C145.921 82.8615 148.867 83.1085 149.634 85.2075C150.271 86.9525 148.862 89.2355 147.072 89.2465C147.33 91.4775 147.368 94.0295 145.876 95.6855C144.565 97.1405 142.468 97.4155 140.603 97.2175C135.587 96.6845 130.002 93.5055 131.529 87.3085C131.833 86.0775 132.611 84.9085 133.735 84.4365C133.61 84.3095 133.5 84.1685 133.406 84.0155Z" fill="#D9C5B2"/>
<path d="M52.4197 116.963C49.5947 115.131 49.4207 114.164 45.9577 112.822C36.3637 109.105 33.7698 107.028 30.6848 97.1333C26.4578 83.5873 34.7548 78.0103 36.1588 66.6073C37.1038 58.9243 34.5417 49.5173 36.2997 41.3273C38.8677 29.3653 46.1567 17.6063 57.4407 12.3123C63.2027 9.61128 67.1748 9.76329 72.9268 11.7203C79.6938 14.0243 83.3307 20.3243 89.7188 22.5863C93.6988 23.9953 98.6867 21.8523 103.216 23.4483C114.497 27.4293 120.545 40.8413 119.453 52.4623C118.967 57.6413 117.801 63.0443 116.024 68.0233C114.205 73.1173 112.114 77.9253 108.783 82.0483C105.926 85.5823 100.726 86.4013 98.3347 90.2823C96.8087 92.7593 95.9007 100.272 94.5707 102.997C92.0047 108.261 90.1567 111.339 86.1867 115.692C77.1677 125.578 62.7497 123.672 52.4197 116.963Z" fill="#EADBCC"/>
<path d="M73.3709 90.7812C71.4349 102.943 44.7019 92.6702 46.9589 83.6022C48.9949 75.4232 59.0199 77.9902 63.6049 79.8182C69.3119 82.0942 74.5769 83.2152 73.3709 90.7812Z" fill="#A17D60"/>
<path d="M143.524 37.7582C135.728 28.4252 119.459 27.4482 111.135 36.9512C107.515 41.0862 112.646 46.5002 117.256 48.5002C122.641 50.8312 129.247 47.5122 135.233 47.5972C138.081 47.6362 142.015 48.7412 144.394 46.4862C147.315 43.7202 145.502 40.1252 143.524 37.7582Z" fill="#BD9C80"/>
<path d="M151.497 61.3317C143.666 58.5297 139.019 49.9707 131.557 46.6957C124.219 43.4747 111.66 48.5717 108.222 39.0517C104.956 30.0107 120.576 29.6717 126.034 27.1867C129.853 25.4487 132.579 24.6257 136.912 25.8877C144.734 28.1647 148.265 31.8127 153.753 36.9327C157.967 40.8657 163.761 44.7667 168.952 47.4997C172.02 49.1147 174.056 49.6277 173.396 53.7077C172.883 56.8857 170.323 59.3177 167.499 60.6257C163.731 62.3717 158.618 62.6617 154.515 62.0787C153.455 61.9287 152.452 61.6727 151.497 61.3317Z" fill="#D0B096"/>
<path d="M31.7467 11.0631C40.7237 2.85906 56.9768 4.07407 63.9518 14.6061C66.9848 19.1891 61.1737 23.8661 56.3367 25.2301C50.6877 26.8191 44.5867 22.6441 38.6437 21.9241C35.8157 21.5811 31.7697 22.1491 29.7137 19.5951C27.1917 16.4631 29.4687 13.1441 31.7467 11.0631Z" fill="#BD9C80"/>
<path d="M20.6849 33.3539C28.8209 31.6269 34.5738 23.7689 42.4068 21.5239C50.1108 19.3169 61.8729 26.0519 66.5559 17.0789C71.0039 8.55791 55.5709 6.12691 50.4959 2.93291C46.9449 0.697911 44.3528 -0.483087 39.8888 0.186913C31.8328 1.39391 27.8449 4.53591 21.7189 8.87391C17.0159 12.2059 10.7509 15.2949 5.24086 17.3069C1.98386 18.4949 -0.102141 18.7319 0.00385899 22.8619C0.086859 26.0799 2.29684 28.8339 4.91984 30.5079C8.41984 32.7439 13.4478 33.7159 17.5918 33.6889C18.6648 33.6839 19.6929 33.5629 20.6849 33.3539Z" fill="#D0B096"/>
<path d="M74.3987 108.086C69.6687 111.652 66.3607 114.889 60.4077 112.042C65.2167 112.41 67.3447 109.367 70.9977 106.35C72.6037 105.023 74.3907 103.926 76.3247 103.558C78.2587 103.19 80.3597 103.624 81.8807 105.084C79.2317 105.357 76.6407 106.396 74.3987 108.086Z" fill="#A17D60"/>
<path d="M60.0608 62.1299C59.9818 62.1369 59.9018 62.1399 59.8208 62.1359C54.6128 61.8799 51.2348 62.4419 46.6748 59.8869C49.3328 58.4949 52.8378 58.8129 55.7688 58.8019C52.5418 55.7329 48.9208 53.2599 48.0888 48.6719C52.9618 51.0819 57.3618 55.6869 61.1008 59.3719C61.5828 59.8479 61.7138 60.5629 61.4308 61.1739C61.1818 61.7139 60.6538 62.0749 60.0608 62.1299Z" fill="#A17D60"/>
<path d="M83.5069 69.9842C83.5659 70.0352 83.6289 70.0832 83.6969 70.1272C88.0499 72.9192 90.4289 75.3172 95.6599 75.8842C94.3659 73.2322 91.3479 71.4712 88.9919 69.7742C93.4619 69.1582 97.8859 69.2512 101.35 66.0332C95.9549 65.1692 89.6049 66.3472 84.3479 67.1642C83.6699 67.2692 83.1279 67.7702 82.9839 68.4262C82.8569 69.0032 83.0619 69.5982 83.5069 69.9842Z" fill="#A17D60"/>
</svg>
