<svg width="142" height="116" viewBox="0 0 213 174" fill="none" xmlns="http://www.w3.org/2000/svg">
<path d="M54.2442 58.7682C54.0582 54.1462 53.9592 49.5192 53.6632 44.8902C53.2602 38.6102 53.8402 33.4872 56.2042 27.5242C59.1012 20.2162 69.7712 6.49521 53.1212 4.20621C43.8152 2.92521 34.4062 17.5082 31.6102 23.6372C29.5472 28.1562 30.3222 33.3542 28.3582 37.8132C25.7572 43.7082 20.2842 47.9602 20.5672 54.2542C20.8152 59.7942 24.8112 63.7442 28.7852 67.1202C30.9172 68.9322 33.1452 70.6412 35.1392 72.6082C36.9842 74.4272 38.3042 77.6532 40.6902 78.6682C41.3202 78.9362 41.9952 79.0792 42.6702 79.1952C44.8542 79.5702 47.1392 79.6642 49.2492 78.9902C57.1122 76.4792 54.4952 65.0192 54.2442 58.7682Z" fill="#D0B096"/>
<path opacity="0.3" d="M117.534 144.072C76.6003 144.072 43.4253 148.619 43.4253 154.234C43.4253 156.332 48.0613 158.28 56.0023 159.898C47.5553 161.21 42.0303 163.38 42.0303 165.837C42.0303 169.844 48.2253 173.483 71.0563 173.329C89.1733 173.207 103.298 169.318 106.885 164.287C110.364 164.356 113.917 164.335 117.534 164.393C164.543 165.153 191.632 159.846 191.632 154.233C191.632 148.619 158.456 144.072 117.534 144.072Z" fill="#231F20"/>
<path d="M60.4091 114.406C54.4201 134.019 49.1401 138.388 46.1291 148.466C45.3091 151.211 45.1561 154.31 46.5131 156.83C48.3471 160.233 52.6051 161.781 56.4391 161.347C60.2731 160.913 63.7361 158.849 66.8081 156.503C75.2871 150.025 81.8491 140.805 84.2611 130.395C85.3161 125.843 85.4301 120.608 82.4831 116.993C79.9661 113.906 74.9921 112.693 71.2291 114.014C67.5351 115.31 61.4351 111.046 60.4091 114.406Z" fill="#D9C5B2"/>
<path d="M180.775 97.717C172.305 90.315 149.511 91.739 146.209 91.949C140.429 92.317 113.972 85.272 111.191 81.661C104.887 73.476 100.69 68.54 89.345 68.699C81.134 68.814 73.039 72.5661 67.63 78.7651C65.023 81.7521 63.042 85.239 61.365 88.835C59.318 93.222 58.608 92.7151 57.47 97.4941C55.8431 104.327 56.606 109.884 57.145 113.927C58.772 126.129 65.152 137.713 76.792 145.488C91.594 155.375 109.528 151.887 125.609 148.384C132.538 146.872 134.165 144.357 141.348 144.394C148.025 144.429 155.902 147.932 162.565 147.413C174.38 146.494 185.662 153.291 190.12 141.751C194.031 131.62 188.695 104.637 180.775 97.717Z" fill="#EADBCC"/>
<path d="M161.049 135.541C156.328 131.255 151.034 131.008 144.991 131.427C135.955 132.052 127.564 137.395 118.33 136.202C109.208 135.023 100.06 132.023 91.54 128.727C91.54 128.727 79.303 135.389 61.512 128.27C63.874 134.896 68.219 142.734 75.341 147.491C85.019 153.955 98.946 152.681 110.21 153.609C123.036 154.665 135.953 154.609 148.768 153.435C153.128 153.035 160.766 152.508 163.73 148.651C166.554 144.974 164.095 138.306 161.049 135.541Z" fill="#D9C5B2"/>
<path d="M105.144 152.156C113.895 142.365 119.042 111.436 96.7711 115.886C85.5261 118.133 82.1921 141.62 81.2071 143.086C76.3011 150.392 64.2261 151.921 59.3271 152.983C54.8091 153.963 50.0901 153.68 45.4411 153.734C40.7931 153.788 35.9461 154.244 32.0231 156.479C28.1001 158.714 25.4251 163.183 26.9151 167.131C28.3591 170.956 33.1341 173.045 37.6301 173.298C42.1261 173.551 46.5521 172.401 51.0061 171.799C57.5821 170.91 64.2881 171.214 70.9051 170.619C85.2251 169.332 93.1301 165.598 105.144 152.156Z" fill="#EADBCC"/>
<path d="M69.799 150.533C69.798 150.53 69.7951 150.528 69.7941 150.525C65.7091 151.846 61.685 152.473 59.327 152.984C54.809 153.964 50.0901 153.681 45.4421 153.735C42.1691 153.773 38.8051 154.025 35.7271 154.942C38.1411 155.83 44.3471 158.899 45.6831 159.217C49.8501 160.211 53.7631 162.044 58.0101 162.7C62.2571 163.355 67.2291 162.491 69.6011 159.223C71.4381 156.693 71.244 153.263 69.799 150.533Z" fill="#D9C5B2"/>
<path d="M69.1693 148.188C70.4393 150.945 70.6103 154.407 68.9953 156.96C66.9093 160.26 62.5353 161.132 58.8003 160.47C55.0653 159.808 51.6233 157.958 47.9593 156.954C46.6853 156.605 45.3173 156.324 44.3493 155.392C41.1343 152.298 44.9873 146.318 47.5183 144.259C54.3073 138.738 65.0493 139.249 69.1693 148.188Z" fill="#EADBCC"/>
<path d="M137.826 118.381C135.943 124.97 136.936 132.724 140.776 138.021C142.928 140.99 147.208 145.453 149.657 148.086C149.515 147.934 143.153 148.294 140.577 150.044C138.177 151.674 137.951 152.523 137.55 155.385C136.402 163.576 145.58 163.003 149.879 162.678C171.485 161.045 170.866 152.798 169.929 152.584C175.609 153.879 180.883 155.647 185.717 150.376C190.027 145.676 191.338 138.029 190.145 131.275C188.309 120.88 181.946 111.838 173.779 107.454C171.136 106.035 168.254 104.721 165.382 104.106C160.208 102.998 154.77 101.111 149.633 103.654C144.254 106.318 139.682 111.888 137.826 118.381Z" fill="#EADBCC"/>
<path d="M138.117 132.773C138.117 132.773 125.346 104.464 156.187 102.414C156.187 102.414 125.871 99.4366 135.192 134.746L138.117 132.773Z" fill="#D9C5B2"/>
<path d="M109.262 83.9344C108.224 81.3824 106.14 79.1014 106.363 73.9324C106.71 65.8844 109.889 54.3274 110.051 50.7584C110.368 43.7164 111.264 37.0484 109.774 30.2844C107.486 19.8934 104.182 14.5314 96.7451 9.65838C93.4011 7.46738 91.3321 4.99138 87.2231 3.71338C83.6031 2.58838 79.2881 1.74038 75.4011 2.49738C73.7861 2.81238 72.2381 2.62738 70.6731 2.74338C68.7931 2.88338 67.1671 3.01638 65.2941 3.08238C53.3451 3.50538 42.8651 13.1014 37.3111 23.2534C32.4951 32.0514 30.0051 35.6354 20.4571 37.3464C14.6811 38.3814 9.70414 35.9414 4.96014 40.7214C0.903141 44.8094 -0.427861 51.2594 0.921139 56.5654C1.45214 58.6574 2.47814 60.7704 3.12614 62.9184C4.78614 68.4114 3.93514 72.9274 9.58714 76.1204C15.9791 79.7304 23.4851 80.5694 30.9031 80.4604C36.8741 80.3724 44.2571 79.1884 50.1231 81.2474C53.5801 82.4604 56.4871 87.1094 56.8191 91.9334C57.1411 96.6204 59.8561 99.7704 60.2901 101.341C63.6931 113.646 86.9481 105.175 98.8871 100.212C105.069 97.6444 112.331 91.4794 109.262 83.9344Z" fill="#EADBCC"/>
<path d="M47.748 32.0845C46.906 37.3525 48.979 41.8855 52.382 42.2085C55.782 42.5325 59.219 38.5245 60.062 33.2565C60.902 27.9875 58.828 23.4565 55.429 23.1315C52.026 22.8085 48.589 26.8155 47.748 32.0845Z" fill="#A17D60"/>
<path d="M19.1982 46.1954C15.2922 55.5064 -1.72185 54.0004 0.14215 45.8754C1.82315 38.5514 6.77315 38.1714 10.1222 38.7234C14.2942 39.4114 21.8492 39.8744 19.1982 46.1954Z" fill="#A17D60"/>
<path d="M8.43622 69.963C8.13822 69.963 7.85022 69.84 7.65222 69.6C3.80122 64.909 4.91922 51.208 4.97022 50.627C5.01922 50.045 5.52322 49.584 6.10122 49.584C6.11122 49.584 6.12122 49.584 6.13022 49.585C6.72122 49.6 7.15822 50.093 7.10822 50.684C6.79222 54.408 6.57622 64.813 9.34422 68.184C9.70922 68.628 9.62622 69.306 9.15922 69.696C8.94522 69.875 8.68822 69.963 8.43622 69.963Z" fill="#A17D60"/>
<path d="M20.5562 70.6377C20.5862 69.3957 16.4542 68.9297 15.6512 68.8397C11.8172 68.4057 8.08225 67.6117 4.17725 67.5527C4.45425 68.9537 4.75225 70.2657 5.27025 71.4807C9.28725 71.4647 14.8302 71.2967 18.8482 71.2807C19.8482 71.2757 20.4362 71.2377 20.5562 70.6377Z" fill="#A17D60"/>
<path d="M106.363 73.9336C93.7332 91.4296 77.6692 94.2426 56.8192 91.9366C55.0852 94.3496 55.1692 100.109 56.6632 101.582C58.5912 102.383 92.8932 109.209 112.329 82.6196C112.329 82.6196 112.249 78.8966 110.2 76.6836C108.362 74.6986 106.363 73.9336 106.363 73.9336Z" fill="#E9AAA6"/>
<path d="M183.345 112.299C176.229 116.693 170.905 121.367 167.255 112.576C167.221 112.499 167.189 112.418 167.158 112.339C164.796 106.247 168.73 105.932 174.175 101.556C175.211 100.724 186.214 92.3853 192.371 86.1733C205.661 72.7623 210.895 60.8173 211.436 60.6063C214.702 59.3333 212.077 79.5053 203.771 92.8313C196.626 104.294 185.475 110.984 183.345 112.299Z" fill="#EADBCC"/>
<path d="M119.99 18.802C114.23 4.88902 97.2321 0.0610194 85.8431 10.678C80.8901 15.299 84.8761 23.501 89.2301 27.124C94.3161 31.35 102.218 28.449 108.546 29.866C111.558 30.539 115.434 32.843 118.565 30.411C122.407 27.428 121.452 22.33 119.99 18.802Z" fill="#BD9C80"/>
<path d="M123.837 54.6608C116.011 48.8558 113.143 35.8748 105.842 29.5068C98.6631 23.2438 83.6421 27.1998 82.3421 13.1858C81.1061 -0.12317 98.2411 3.25783 104.837 1.16583C109.452 -0.297174 112.64 -0.76417 117.045 2.04883C124.996 7.12483 127.91 13.0408 132.582 21.4738C136.168 27.9508 140.67 31.6558 145.631 36.7138C148.564 39.7028 151.472 44.0338 149.701 49.5128C148.323 53.7818 144.903 56.5148 141.484 57.6268C136.922 59.1128 131.267 58.2538 126.939 56.4378C125.82 55.9688 124.791 55.3678 123.837 54.6608Z" fill="#D0B096"/>
</svg>
